<svg width="512" height="512" viewBox="0 0 512 512" fill="none" xmlns="http://www.w3.org/2000/svg">
  <rect width="512" height="512" rx="128" fill="url(#gradient)"/>
  <defs>
    <linearGradient id="gradient" x1="0" y1="0" x2="512" y2="512" gradientUnits="userSpaceOnUse">
      <stop offset="0%" stop-color="#10B981"/>
      <stop offset="100%" stop-color="#047857"/>
    </linearGradient>
  </defs>
  
  <!-- Sparkle Icon -->
  <path d="M256 96L276 196L356 216L276 236L256 336L236 236L156 216L236 196L256 96Z" fill="white" opacity="0.9"/>
  <path d="M376 136L386 176L426 186L386 196L376 236L366 196L326 186L366 176L376 136Z" fill="white" opacity="0.7"/>
  <path d="M136 296L146 336L186 346L146 356L136 396L126 356L86 346L126 336L136 296Z" fill="white" opacity="0.7"/>
  
  <!-- Text -->
  <text x="256" y="440" font-family="Arial, sans-serif" font-size="80" font-weight="bold" fill="white" text-anchor="middle">10억</text>
</svg>
